:SAMPLES-PER-SECOND 30
:FULLY-SPECIFIED
:DEGREES
547
root  -18.2068 14.3637 -29.3227 -138.526 -44.7146 -168.005
Spine  0.116942 16.1502 9.47795
Spine1  -2.93181 16.0746 4.35798
Neck  3.97569e-016 0 -2.38542e-015
Head  7.3856 -0.924007 51.3159
R_Clavicle  0.511821 -17.4893 4.18101
R_UpperArm  52.6319 -18.9391 74.5421
R_Forearm  18.0394 14.7288 -12.6154
R_Hand  -7.10885 12.4148 -54.8983
L_Clavicle  -0.51467 12.0902 4.99334
L_UpperArm  -85.1384 65.4043 35.8177
L_Forearm  48.3037 1.00913 1.82683
L_Hand  35.216 -39.4698 -89.9682
L_Thigh  -16.8427 38.2555 9.57596
L_Calf  -23.9691 -13.3133 48.0123
L_Foot  13.5357 27.793 14.4621
L_Toe0  0.505221 0.035779 -6.13601
R_Thigh  -2.03212 -53.115 32.1963
R_Calf  0.532646 9.2943 54.6404
R_Foot  0.449191 -3.91893 -10.6911
R_Toe0  -1.78853 -0.272788 -17.3235
548
root  -18.504 14.6366 -31.0185 -157.059 -52.1553 -158.441
Spine  1.28894 13.5492 9.8769
Spine1  -0.64398 16.7195 7.99147
Neck  3.97569e-016 0 -2.38542e-015
Head  5.15562 -1.59965 52.566
R_Clavicle  0.348085 -25.9501 4.24107
R_UpperArm  43.3572 -21.1711 77.5424
R_Forearm  18.0276 -8.26473 6.89143
R_Hand  -6.11926 10.2251 -52.2095
L_Clavicle  -0.424536 17.0686 5.98734
L_UpperArm  -78.6004 64.9616 45.3856
L_Forearm  60.9595 -2.92708 -3.53805
L_Hand  28.0352 -42.7025 -70.5392
L_Thigh  -10.5658 45.5792 17.1404
L_Calf  -36.4825 -12.2937 53.7825
L_Foot  25.7001 43.0725 25.8299
L_Toe0  0.50522 0.0357562 -6.13601
R_Thigh  2.51593 -56.3523 22.7127
R_Calf  4.30725 9.68392 53.7853
R_Foot  0.809698 -3.15298 -12.2168
R_Toe0  -1.78853 -0.272788 -17.3235
549
root  -18.8448 14.9202 -32.1384 -179.213 -55.8484 -145.115
Spine  2.97271 11.4815 11.8473
Spine1  2.00119 18.4207 11.0412
Neck  3.97569e-016 0 -2.38542e-015
Head  2.27746 -2.94481 53.4801
R_Clavicle  0.198505 -32.3211 4.41356
R_UpperArm  30.5821 -23.8656 83.6861
R_Forearm  14.096 -24.462 18.5724
R_Hand  -7.60285 16.3674 -55.1508
L_Clavicle  -0.260405 21.3462 7.08568
L_UpperArm  -74.2275 65.5914 52.507
L_Forearm  67.2452 -6.35804 -7.40576
L_Hand  19.2748 -40.2704 -54.9801
L_Thigh  -5.89423 51.4188 31.9496
L_Calf  -29.1197 -11.0577 52.4249
L_Foot  15.8812 31.7607 16.7122
L_Toe0  0.505219 0.0357336 -6.13602
R_Thigh  4.83846 -57.1887 10.1987
R_Calf  11.7639 9.37828 51.3206
R_Foot  0.682241 -5.01625 -13.5596
R_Toe0  -1.78853 -0.272788 -17.3235
550
root  -19.084 15.1174 -33.2465 154.326 -54.9563 -129.434
Spine  4.77931 11.4217 16.0597
Spine1  3.65493 17.4614 12.9342
Neck  3.97569e-016 0 -2.38542e-015
Head  1.09984 -5.39127 54.6798
R_Clavicle  0.0911225 -35.6153 4.64012
R_UpperArm  16.095 -37.2736 107.849
R_Forearm  -1.10846 -4.41709 -6.41242
R_Hand  -24.3654 37.4649 -75.0711
L_Clavicle  -0.175643 22.2141 8.01298
L_UpperArm  -69.7814 67.7936 58.6976
L_Forearm  71.7851 -7.33078 -8.88258
L_Hand  12.4824 -35.8084 -42.4408
L_Thigh  1.18053 53.1804 48.4123
L_Calf  -25.9554 -10.7144 50.1875
L_Foot  4.46214 5.99893 11.51
L_Toe0  0.505218 0.035711 -6.13602
R_Thigh  3.15687 -54.5611 -1.14861
R_Calf  18.4416 10.4452 45.9259
R_Foot  0.50238 -6.35992 -13.8104
R_Toe0  -1.78853 -0.272788 -17.3235
551
root  -19.4968 14.8687 -34.24 129.005 -57.2417 -118.248
Spine  4.65896 7.03258 18.5984
Spine1  3.93193 11.4084 13.7264
Neck  3.97569e-016 0 -2.38542e-015
Head  0.972285 -4.54224 54.7311
R_Clavicle  0.109152 -33.4873 4.96973
R_UpperArm  6.93379 -46.869 120.306
R_Forearm  -22.0137 14.5323 -17.5292
R_Hand  -24.9791 48.8791 -66.7843
L_Clavicle  -0.227119 20.8841 8.2127
L_UpperArm  -52.4676 67.3341 70.004
L_Forearm  68.9274 -7.21651 -5.31489
L_Hand  10.3504 -36.1504 -34.7984
L_Thigh  4.02939 48.7991 54.5611
L_Calf  -27.2276 -12.2374 51.738
L_Foot  4.36727 6.39404 10.5835
L_Toe0  0.505217 0.0356884 -6.13602
R_Thigh  1.12814 -54.8893 -1.32786
R_Calf  17.5808 11.8865 39.524
R_Foot  0.470902 -5.22186 -12.4161
R_Toe0  -1.78853 -0.272788 -17.3235
552
root  -20.5217 14.5395 -34.7301 98.418 -61.9268 -102.834
Spine  3.73351 0.623648 18.4563
Spine1  3.5827 1.89657 15.0645
Neck  3.97569e-016 0 -2.38542e-015
Head  -0.770535 2.5609 52.4318
R_Clavicle  0.259432 -27.8385 5.16579
R_UpperArm  10.9893 -56.7287 114.21
R_Forearm  -36.0735 18.3332 -15.3284
R_Hand  -18.9586 45.6797 -57.6099
L_Clavicle  -0.247701 20.5061 8.13805
L_UpperArm  -16.89 56.5344 83.0225
L_Forearm  50.7865 -7.62474 3.4759
L_Hand  15.917 -50.0026 -36.2081
L_Thigh  4.29028 43.3025 55.516
L_Calf  -21.4903 -11.3485 52.9825
L_Foot  5.072 8.47235 10.5884
L_Toe0  0.505216 0.0356659 -6.13602
R_Thigh  8.91948 -56.6507 0.632639
R_Calf  11.4893 11.0866 37.2201
R_Foot  0.399565 -4.4327 -11.0274
R_Toe0  -1.78853 -0.272788 -17.3235
553
root  -21.8348 14.3671 -34.3961 63.387 -65.7849 -83.042
Spine  3.25901 -4.12157 15.5655
Spine1  2.65456 -9.12224 17.2227
Neck  3.97569e-016 0 -2.38542e-015
Head  -5.12236 11.5493 49.3571
R_Clavicle  0.436361 -21.736 5.10195
R_UpperArm  10.2406 -61.461 108.035
R_Forearm  -39.9032 16.824 -13.9266
R_Hand  -22.3271 47.19 -63.119
L_Clavicle  -0.217872 21.8922 7.49971
L_UpperArm  -6.47053 40.9276 81.7239
L_Forearm  27.3382 2.87664 1.94981
L_Hand  29.3721 -60.6688 -50.1485
L_Thigh  6.63242 38.8615 59.9007
L_Calf  -18.0342 -8.94453 52.4004
L_Foot  4.64554 6.8859 10.972
L_Toe0  0.505215 0.0356435 -6.13602
R_Thigh  20.713 -56.3525 1.25131
R_Calf  7.91045 11.0128 36.9144
R_Foot  0.699135 -2.30271 -10.1465
R_Toe0  -1.78853 -0.272788 -17.3235
554
root  -23.0046 14.399 -33.6786 30.4163 -64.9944 -64.9071
Spine  3.3931 -5.69394 14.3881
Spine1  1.20146 -18.9778 18.2168
Neck  3.97569e-016 0 -2.38542e-015
Head  -10.2264 15.6352 48.1311
R_Clavicle  0.577446 -15.8388 4.7709
R_UpperArm  3.26721 -64.5127 105.338
R_Forearm  -40.9411 14.0168 -13.4311
R_Hand  -33.8457 52.5345 -78.0574
L_Clavicle  -0.296594 22.7473 5.72167
L_UpperArm  -7.30708 31.2427 75.7866
L_Forearm  9.28073 6.69231 -0.607202
L_Hand  9.05677 -51.1375 -21.9016
L_Thigh  8.74572 37.2704 65.0719
L_Calf  -15.9418 -7.49472 52.7429
L_Foot  5.05357 8.89278 10.0413
L_Toe0  0.505214 0.0356211 -6.13602
R_Thigh  30.737 -53.3682 0.0640354
R_Calf  0.60713 10.1562 33.5306
R_Foot  1.30324 1.83882 -7.8555
R_Toe0  -1.78853 -0.272788 -17.3235
555
root  -24.2721 14.6069 -32.7403 -2.4729 -60.5747 -46.173
Spine  3.23541 -7.96048 12.1593
Spine1  0.109836 -25.7884 16.9658
Neck  3.97569e-016 0 -2.38542e-015
Head  -14.2875 14.2789 48.8898
R_Clavicle  0.655019 -11.0277 4.43985
R_UpperArm  4.3595 -67.5715 97.3468
R_Forearm  -42.6414 10.903 -11.4111
R_Hand  -49.0346 55.9602 -96.3655
L_Clavicle  -0.409651 20.8542 4.1613
L_UpperArm  -13.8776 25.7652 61.6213
L_Forearm  -7.01769 16.5075 12.8863
L_Hand  0.343823 -17.4654 0.811847
L_Thigh  10.6628 38.1632 69.3869
L_Calf  -17.7061 -7.30043 53.4448
L_Foot  4.39753 8.69737 7.99113
L_Toe0  0.505213 0.0355989 -6.13603
R_Thigh  30.2371 -50.5746 3.29681
R_Calf  -8.55621 9.03897 29.2885
R_Foot  -1.03723 -4.60773 -2.69996
R_Toe0  -1.78853 -0.272788 -17.3235
556
root  -25.6045 15.0443 -31.3284 -26.4631 -51.9829 -34.947
Spine  2.54858 -11.5542 10.7253
Spine1  -0.00802812 -28.9841 14.9149
Neck  3.97569e-016 0 -2.38542e-015
Head  -17.0953 11.5489 49.0103
R_Clavicle  0.721939 -7.73876 4.45098
R_UpperArm  14.3025 -70.6933 85.9349
R_Forearm  -41.7345 9.25765 -8.49621
R_Hand  -63.0159 53.8503 -115.755
L_Clavicle  -0.448666 17.0271 3.46393
L_UpperArm  -18.061 21.2572 45.2518
L_Forearm  -37.1068 24.5344 32.5434
L_Hand  0.0572537 1.99872 0.514538
L_Thigh  11.114 39.5205 70.5968
L_Calf  -21.0194 -8.15532 53.4747
L_Foot  3.55662 6.81061 7.08574
L_Toe0  0.505212 0.0355767 -6.13603
R_Thigh  26.8241 -48.9558 6.91667
R_Calf  -11.7413 8.24326 26.3834
R_Foot  -7.3749 -21.681 3.93019
R_Toe0  -1.78853 -0.272788 -17.3235
557
root  -26.5298 15.6361 -29.1227 -42.2566 -43.4595 -30.1524
Spine  1.62242 -14.4074 10.6859
Spine1  0.329557 -28.6302 14.0152
Neck  3.97569e-016 0 -2.38542e-015
Head  -18.7564 10.1767 47.8164
R_Clavicle  0.814262 -4.28227 4.60171
R_UpperArm  26.5929 -73.1517 73.6804
R_Forearm  -34.0748 7.31797 -5.13013
R_Hand  -69.519 44.5823 -132.95
L_Clavicle  -0.429882 12.1156 2.42515
L_UpperArm  -27.505 23.6656 43.7278
L_Forearm  -37.0386 10.5896 12.4603
L_Hand  -0.393719 -0.337595 -8.33519
L_Thigh  9.81522 39.3551 68.1327
L_Calf  -20.9676 -8.7592 53.3369
L_Foot  3.93452 7.90064 7.24997
L_Toe0  0.505211 0.0355546 -6.13603
R_Thigh  28.5402 -47.1702 4.75887
R_Calf  -12.0789 8.77217 28.2974
R_Foot  -7.37087 -19.5633 5.69035
R_Toe0  -1.78853 -0.272788 -17.3235
558
root  -26.7305 16.4387 -26.5862 -57.1846 -34.7485 -24.9343
Spine  1.22162 -15.07 9.08219
Spine1  0.57306 -26.7632 13.2837
Neck  3.97569e-016 0 -2.38542e-015
Head  -20.485 10.3986 47.1119
R_Clavicle  0.894543 0.666068 4.48605
R_UpperArm  45.3057 -73.9655 54.6771
R_Forearm  -20.1984 3.06307 -0.0219923
R_Hand  -63.7455 31.4072 -143.184
L_Clavicle  -0.259128 6.63637 0.87549
L_UpperArm  -39.416 24.6936 39.3518
L_Forearm  -32.5435 -0.644706 -0.756208
L_Hand  -0.302368 -2.56381 -11.9414
L_Thigh  8.95071 38.9957 65.4837
L_Calf  -19.2054 -8.19754 53.1731
L_Foot  4.1806 9.47668 6.4372
L_Toe0  0.505209 0.0355326 -6.13603
R_Thigh  30.6089 -44.0665 1.77572
R_Calf  -16.6268 9.92605 32.624
R_Foot  0.376307 1.7342 1.20732
R_Toe0  -1.78853 -0.272788 -17.3235
